<svg width="334" height="370" viewBox="0 0 334 370" fill="none" xmlns="http://www.w3.org/2000/svg">
<path d="M166.664 120.101L166.5 174.5L222.664 174.601C221.464 171.001 224 159 229.164 152.101C249.497 132.434 290.864 91.5011 293.664 85.1011C297.164 77.1011 297.164 65.6009 284.664 53.6009C274.664 44.0009 258.164 49.6009 251.164 53.6009C233.997 71.1009 197.764 107.601 190.164 113.601C182.564 119.601 171.331 120.434 166.664 120.101Z" fill="#F35227"/>
<path d="M168.258 230.944L166.523 175L113 174C114.246 177.641 113 186.5 105.099 199.159C97.1975 211.818 43.792 261.368 41.0511 267.897C37.6251 276.057 37.7552 287.731 50.4504 299.773C60.6065 309.407 77.1214 303.537 84.1094 299.398C101.159 281.44 137.151 243.981 144.72 237.805C152.288 231.629 163.565 230.658 168.258 230.944Z" fill="#F35227" stroke="#F35227"/>
<path d="M222 174.601H166.66V231.5C170.26 230.3 182.66 234.434 188.66 237.101C208.327 257.434 249.26 298.801 255.66 301.601C263.66 305.101 275.16 305.101 287.16 292.601C296.76 282.601 291.16 266.101 287.16 259.101C269.66 241.934 233.16 205.701 227.16 198.101C221.16 190.501 221.667 179.267 222 174.601Z" fill="#154A76"/>
<path d="M112.664 173.601L166.5 174.5L166.531 120.5C162.901 121.605 150.5 117 145.5 114C140.5 111 87.4844 54.0675 81.1599 51.1008C73.2544 47.3924 62.4809 43.9194 50.1576 56.1008C40.2989 65.8458 43.8028 80.1241 47.6181 87.2265C64.6624 104.846 100.201 142.023 106 149.777C111.798 157.532 113.12 168.945 112.664 173.601Z" fill="#0C92AA"/>
<circle cx="169" cy="38" r="38" fill="#FBB231"/>
<circle cx="296" cy="173" r="38" fill="#FBB231"/>
<circle cx="38" cy="173" r="38" fill="#0C91A9"/>
<rect x="136" y="273" width="62" height="97" rx="30" fill="#FAB230"/>
</svg>
